<?xml version="1.0" encoding="UTF-8" standalone="no"?>
<svg
   xmlns:dc="http://purl.org/dc/elements/1.1/"
   xmlns:cc="http://creativecommons.org/ns#"
   xmlns:rdf="http://www.w3.org/1999/02/22-rdf-syntax-ns#"
   xmlns:svg="http://www.w3.org/2000/svg"
   xmlns="http://www.w3.org/2000/svg"
   xmlns:sodipodi="http://sodipodi.sourceforge.net/DTD/sodipodi-0.dtd"
   xmlns:inkscape="http://www.inkscape.org/namespaces/inkscape"
   width="31.79789mm"
   height="9.1920023mm"
   viewBox="0 0 31.797889 9.1920024"
   version="1.1"
   id="svg8"
   sodipodi:docname="logo_v.svg"
   inkscape:version="1.0.1 (c497b03c, 2020-09-10)">
  <sodipodi:namedview
     pagecolor="#ffffff"
     bordercolor="#666666"
     borderopacity="1"
     objecttolerance="10"
     gridtolerance="10"
     guidetolerance="10"
     inkscape:pageopacity="0"
     inkscape:pageshadow="2"
     inkscape:window-width="1920"
     inkscape:window-height="957"
     id="namedview856"
     showgrid="false"
     inkscape:zoom="5.7809153"
     inkscape:cx="41.828066"
     inkscape:cy="15.929458"
     inkscape:window-x="0"
     inkscape:window-y="25"
     inkscape:window-maximized="1"
     inkscape:current-layer="svg8"
     inkscape:document-rotation="0" />
  <defs
     id="defs2">
    <style
       type="text/css"
       id="style833"><![CDATA[
    .str0 {stroke:#3AA88A;stroke-width:7.62;stroke-miterlimit:22.9256}
    .fil4 {fill:none}
    .fil1 {fill:#3AA88A}
    .fil2 {fill:white}
    .fil0 {fill:#2B2A29;fill-rule:nonzero}
    .fil5 {fill:#3AA88A;fill-rule:nonzero}
    .fil3 {fill:#2B2A29;fill-opacity:0.200000}
   ]]></style>
    <clipPath
       id="id0">
      <path
         d="m 2580.46,7256.47 c 0,643.18 349.54,1207.05 874.41,1523.02 C 3193.69,7866 2903.31,7212.8 2584.51,7139.05 v 0 c -2.61,38.84 -4.05,77.95 -4.05,117.42 z m 64.68,-471.17 c 548.53,-198.18 1028.73,22.35 1411.46,1875 v 0 C 5097.41,7464.61 5692.49,6394.22 5114.84,5593.33 v 0 c -212.45,-82.64 -444.39,-128.22 -687.32,-128.22 -851.96,0 -1569.1,559.43 -1782.38,1320.19 z m 2144.3,2228.04 c 846.81,-163.19 1485.15,-887.67 1485.15,-1756.87 0,-357.13 -107.8,-689.79 -293.49,-969.21 56.78,873.67 -575.56,2028.51 -1191.66,2726.08 z"
         id="path835" />
    </clipPath>
  </defs>
  <metadata
     id="metadata5">
    <rdf:RDF>
      <cc:Work
         rdf:about="">
        <dc:format>image/svg+xml</dc:format>
        <dc:type
           rdf:resource="http://purl.org/dc/dcmitype/StillImage" />
        <dc:title />
      </cc:Work>
    </rdf:RDF>
  </metadata>
  <g
     id="g1006"
     transform="scale(1.1889602)">
    <g
       id="_2346305861088"
       style="clip-rule:evenodd;fill-rule:evenodd;image-rendering:optimizeQuality;shape-rendering:geometricPrecision;text-rendering:geometricPrecision"
       transform="matrix(0.00166321,0,0,0.00189461,-4.1612516,-10.15456)">
      <path
         class="fil0"
         d="m 7115.37,8927.53 v 234.58 h -301.59 v -234.58 h -27.29 v 496.32 h 27.29 v -234.57 h 301.59 v 234.57 h 27.29 v -496.32 z m 791.61,0.72 h -319.3 v 494.89 h 319.3 v -25.03 h -293.49 v -209.54 h 255.88 v -25.75 h -255.88 v -209.54 h 293.49 z m 633.05,0.71 h -30.23 l -193.2,493.46 h 28.03 l 54.57,-140.88 h 251.45 l 54.57,140.88 h 28.02 z m 100.3,328.98 H 8409.52 L 8524.56,8959 Z m 536.46,139.45 v -469.86 h -27.28 v 496.32 h 320.76 v -26.46 z m 993.64,-469.86 h -395.98 v 26.46 h 184.35 v 469.86 h 27.28 v -469.86 h 184.35 z m 751.04,0 v 234.58 h -301.59 v -234.58 h -27.29 v 496.32 h 27.29 v -234.57 h 301.59 v 234.57 h 27.29 v -496.32 z m 1278.66,12.16 c 81.85,0 156.32,39.34 202.04,105.13 h 2.95 l 20.65,-15.02 c -49.41,-72.23 -134.2,-117.28 -225.64,-117.28 -148.96,0 -272.11,119.43 -272.11,263.89 0,144.46 123.15,263.89 272.11,263.89 91.44,0 176.23,-45.05 225.64,-117.28 l -20.65,-15.02 h -2.95 c -45.72,65.79 -120.19,105.13 -202.04,105.13 -135.68,0 -244.83,-105.13 -244.83,-236.72 0,-131.59 109.15,-236.72 244.83,-236.72 z m 841.74,-10.73 h -30.23 l -193.2,493.46 h 28.02 l 54.57,-140.88 h 251.45 l 54.57,140.88 h 28.02 z m 100.29,328.98 h -230.81 L 13026.39,8959 Z M 13990.54,9077 c 0,-82.24 -68.58,-148.75 -153.38,-148.75 h -185.82 v 495.6 h 24.33 v -197.38 h 154.85 l 124.62,197.38 h 32.45 l -125.36,-199.52 c 73,-11.45 128.31,-72.95 128.31,-147.33 z m -153.38,125.16 h -161.49 v -250.31 h 161.49 c 70.79,0 129.05,56.5 129.05,125.15 0,69.37 -58.26,125.16 -129.05,125.16 z m 902.95,-273.91 h -319.3 v 494.89 h 319.3 v -25.03 h -293.49 v -209.54 h 255.87 v -25.75 h -255.87 v -209.54 h 293.49 z"
         id="path841" />
      <path
         class="fil0"
         d="m 4794.86,5904.64 c 734.62,290.3 1087.51,1103.19 788.18,1815.69 -299.32,712.45 -1137.51,1054.7 -1872.13,764.41 C 2976.25,8194.43 2623.37,7381.51 2922.69,6669.06 3222.03,5956.57 4060.21,5614.34 4794.86,5904.64 Z"
         id="path843" />
      <polygon
         class="fil0"
         points="5715.28,8012.87 6039.49,8284.5 5646.61,8118.78 "
         id="polygon845" />
      <polygon
         class="fil0"
         points="5714.68,6375.52 6119.3,6239.08 5774.96,6486.19 "
         id="polygon847" />
      <path
         class="fil1"
         d="m 4536.95,5359.71 c 1123.89,0 2034.98,888.03 2034.98,1983.45 0,1095.42 -911.09,1983.43 -2034.98,1983.43 -1123.9,0 -2035.01,-888.01 -2035.01,-1983.43 0,-1095.42 911.11,-1983.45 2035.01,-1983.45 z"
         id="path849" />
      <path
         class="fil2"
         d="m 2580.46,7256.47 c 0,643.18 349.54,1207.05 874.41,1523.02 C 3193.69,7866 2903.31,7212.8 2584.51,7139.05 v 0 c -2.61,38.84 -4.05,77.95 -4.05,117.42 z m 64.68,-471.17 c 548.53,-198.18 1028.73,22.35 1411.46,1875 v 0 C 5097.41,7464.61 5692.49,6394.22 5114.84,5593.33 v 0 c -212.45,-82.64 -444.39,-128.22 -687.32,-128.22 -851.96,0 -1569.1,559.43 -1782.38,1320.19 z m 2144.3,2228.04 c 846.81,-163.19 1485.15,-887.67 1485.15,-1756.87 0,-357.13 -107.8,-689.79 -293.49,-969.21 56.78,873.67 -575.56,2028.51 -1191.66,2726.08 z"
         id="path851" />
      <g
         clip-path="url(#id0)"
         id="g856">
        <g
           id="g854">
          <path
             id="1"
             class="fil3"
             d="m 2419.04,5166.79 h 87.65 c 2.57,8.85 5.46,20.33 8.77,35.93 2.23,10.53 56.94,162.69 78.15,181.67 39.47,-61.11 53.96,-106.37 109.17,-182.57 9.16,-12.64 17.84,-24.22 26.3,-35.03 h 53.4 c -74.35,92.59 -164.73,250.59 -159.64,266.97 8.96,28.88 77.72,73.19 110.4,83.51 12.42,-16.81 26.9,-31.43 43.33,-47.61 l 112.93,-110.52 c 7.32,-7.2 13.44,-14.59 23.47,-22.89 l -39.36,-169.46 h 86.62 c 23.54,103.61 48.85,207.68 57.68,232.86 47.05,-11.39 153.17,-142.81 219.29,-232.86 h 53.58 l -8.37,12.26 c -11.19,16.38 -72.92,93.82 -76.94,106.43 132.47,11 224.85,3.63 340.4,-32.44 24.65,-7.69 47.17,-14.88 73.56,-23.19 69.57,-21.9 65.19,-11.35 77.84,-63.06 h 88.53 c -31.64,111.24 -54.81,210.07 -52.47,240.94 28.73,4.81 56.87,12.15 80.49,24.61 17.23,15.18 -13.15,4.12 23.2,33.3 19.4,15.58 17.48,32.8 41.36,20.62 l 12.27,-7.59 c 35.22,24.17 40.86,39 62.09,61.73 8.75,9.36 2.96,3.99 10.72,9.86 15.26,-121.87 23.13,-252.9 19.83,-383.47 h 83.82 c 1.3,89.23 -1.99,179.45 -5.26,270.22 14.47,8.01 53.41,10.59 70.9,13.8 24.53,4.51 49.88,11.51 74.08,11.74 -13.34,-114.09 19.28,-200.05 71.62,-285.35 2.25,-3.67 3.87,-7.12 4.97,-10.41 h 53.75 c -10.06,13.47 -19.87,28.1 -31.1,46.52 -43.8,71.9 -73.2,166.98 -52.53,268.75 104.19,29.8 148.23,122.37 167.5,134.81 0.88,-0.9 2.24,-3.53 2.65,-2.73 0.5,1.01 1.2,-1.05 5.05,-5.39 3.4,-3.83 6.31,-7.46 8.89,-10.56 44.06,-52.57 154.57,-178.93 178.74,-228.74 13.74,-28.31 33.48,-72.85 38.96,-105.45 -24.45,-22.32 -57.16,-34.38 -105.17,-96.92 l -0.23,-0.29 h 56.45 c 3.44,3.69 6.85,7.18 10.24,10.37 l 21.58,21.23 c 9.14,8.96 14.81,15.16 28.74,17.31 4.55,-10.55 8.7,-27.36 12.5,-48.91 h 39.96 c -7.46,51.18 -19.36,113.45 -42.45,171.59 -8.78,22.12 -30.88,62.09 -34.92,79.94 8.77,11.25 30.87,29.25 43.59,42.81 30.02,32.01 95.66,117.27 130.8,127.42 18.13,-25.29 88.27,-283.52 100.03,-330.5 7.28,-29.16 14.55,-55.96 22.86,-85.59 0.56,-2.01 0.91,-3.89 1.08,-5.67 h 88.37 l -0.89,3.3 c -11.85,43.55 -31.15,104.17 -38.33,147.88 108.64,-15.66 218.2,-81.08 309.01,-151.18 h 68.7 c -18.03,15.32 -36.04,29.63 -53.18,42.06 -20.68,14.99 -21.19,14.11 -8.98,39.39 l 94.61,189.1 c 11.9,24.74 31.02,75.86 43.55,97.46 38.6,-19.91 56.71,-207.51 123.73,-368.01 h 44.72 c -52.81,114.28 -58.6,231.69 -112.33,356.94 -55.09,128.46 -30.85,39.51 -15.34,179.94 68.74,-10.91 278.67,-158.46 353.84,-215.96 82.22,-62.91 83.46,-53.67 42.34,-142.43 -18.72,-40.43 -36,-70.79 -58.03,-107.86 -6.27,-10.55 -23.69,-38.76 -43.78,-70.63 h 50.54 c 4.36,13.33 22.05,30.2 54.43,90.96 l 66.16,135.22 163.74,-157.04 c -8.69,-25.94 -21.34,-36.96 -35.37,-69.14 h 48.57 c 4.74,10.83 10.01,22.1 15.93,33.9 7.23,-1.8 23.25,-16.14 40.99,-33.9 h 115.39 c -8.52,9.88 -14.09,17.04 -14.89,19.63 100.94,11.79 188.05,1.3 280.53,-16.96 v 42.86 c -7.08,1.93 -12.9,4.01 -16.04,6.22 -12.32,8.62 -78.38,153.18 -79.5,176.39 26.86,14.6 59.57,28.44 95.54,39.87 v 42.85 c -44.16,-13.12 -89.8,-29.6 -105.85,-42.1 -1.05,1.07 -2.34,1.32 -2.79,3.48 l -40.11,156.79 c -9.04,58.08 -13.09,127.64 -4.49,189.12 4.76,-0.38 87.47,-35.8 128.51,-46.19 5.01,-1.27 13.77,-2.85 24.73,-4.58 v 84.94 c -20.63,5.55 -41.15,12.18 -57.69,18.55 -15.9,6.11 -32.59,13.82 -45.96,20.26 -50.63,24.39 -80.25,45.47 -127.37,82.18 -53.37,41.54 -22.35,27.21 -27,102.51 -80.37,56.17 20.15,48.24 -24.17,137.94 -13.33,-2.65 -23.45,-13.15 -28.72,-23.88 -15.23,-31.08 22.46,-53.15 8.64,-149.16 -20.43,11.78 -30.6,30.03 -46.38,47.82 -28.37,32 -16.68,9.65 -43.53,51.19 -13.4,20.7 -29.34,38.5 -40.58,54.29 -10.7,15.04 -27.81,43.59 -40.88,55 l -5.08,-1.27 c -11.86,-2.07 -18.94,0.65 -32.65,19.16 -25.88,34.91 14.71,25.91 -22.2,73.4 -62.42,80.33 -30.38,90.94 -17.5,152.79 14.04,67.45 15.9,155.21 27.38,207.23 29.04,-21.78 52.58,-54.56 77.9,-88.51 13.16,-17.66 23.96,-33.01 35.93,-49.4 5.89,-8.09 31.36,-40.77 36,-49.39 12.24,-22.73 -4.48,-151.49 34.78,-218.35 16.02,-27.26 -1.88,-41.75 13.49,-73.3 21.68,7.64 5.29,6.9 35.21,23.3 -10.74,72.88 -33.95,125.04 -37.54,210.21 14.98,-7.78 63.81,-61.29 118.31,-91.28 35.27,-19.41 25.26,-23.36 45.66,-82.73 15.2,-44.29 26.32,-80.6 43.53,-124.6 15.82,-40.5 4.04,-28.35 38,-48.82 21,-12.66 31,-25.32 28.7,-57.38 l -18.34,-4.68 10.36,-25.46 c 18.59,5.77 27.07,19.84 39.89,36.68 10.91,-4.03 12.96,-10.93 20.82,-13.09 -23.04,-20.63 -26.72,-25.93 -28.72,-48.23 9.34,0.49 19.66,1.36 29.71,3.1 v 92.73 c -15.04,29.25 -29.26,58.88 -35.04,87.25 11.03,-2.72 22.79,-6.53 35.04,-11.24 v 44.81 l -2.83,1.36 c -72.42,30.04 -46.43,-7.12 -90.59,126.54 -15.52,46.98 -98.41,310.47 -97.23,339.48 l 67.57,-2.8 c 54.1,1.42 46.45,7.6 73.7,-26.9 9.79,-12.39 8.27,-10.3 18.08,-19.52 11,-10.33 21.41,-19.84 31.3,-28.63 v 55.7 c -7.66,8.46 -13.72,16.47 -17.82,23.9 l 17.82,1.99 v 41.57 c -79.82,-6.93 -165.99,-12.29 -207.82,0.64 l -46.96,158.71 c 37.04,2.18 129.15,-18.38 170.53,-25.24 30.1,-5 57.14,-7.76 84.25,-9.71 v 42.32 c -91.08,8.76 -200.22,25.4 -267.72,41.32 l -69.42,206.84 c 1.59,0.85 3.48,0.29 4.16,1.88 l 163.71,42.45 c 44.62,12.01 118.9,35.23 169.27,38.22 v 43.89 c -33.85,-6.81 -74.74,-16.6 -94.41,-14.72 -26.52,71.59 -100.92,198.79 -171.27,222.98 13.03,17.99 30.42,19.47 58.34,36.99 19.33,12.13 36.21,28.39 55.34,38.68 42.82,-23.31 86.29,-63.89 124.46,-93.12 8.57,-6.57 18.2,-14.51 27.54,-22.25 v 108.12 c -5.11,4.33 -10.44,8.98 -16.26,13.86 -74.43,62.43 -196.55,131.49 -282.91,174.43 -26.24,13.06 -23.64,31.15 -27.96,60.58 -4.44,30.25 -5.68,61.12 -5.66,91.67 0.07,98.73 25.85,223.34 65.07,298.03 13.95,-3.33 3.04,6.35 23.74,-31.47 98.21,-179.49 182.64,-321.12 243.98,-506.61 v 228.92 c -17.91,37.3 -36.83,74.13 -55.88,109.31 -20.28,37.43 -12.69,37.97 4.46,76.24 14.15,31.58 31.83,63.52 51.42,94.09 v 74.43 c -5.51,-7.21 -11.48,-15.22 -17.96,-24.21 -17.41,-24.14 -27.81,-41.65 -42.28,-66.68 l -39.38,-70.49 c -25.8,43.95 -178.28,316.24 -182.85,337.5 21.11,24.86 38.14,41.72 59.74,68.23 10.45,12.84 44.18,65.52 56.26,74.41 38.15,-43.76 102.36,-84.9 166.47,-166.03 v 62 c -48.6,56.28 -103.62,110.87 -147.96,143.04 6.96,24.03 18.81,47.38 21.91,75.55 l -19,18.7 c 5.7,7.7 21.32,26.8 31.62,34.51 l 96.19,-53.7 c 5.15,-2.91 11.01,-5.93 17.24,-9.17 v 91.74 l -60.31,34.54 c -3.98,2.86 -72.25,43.57 -82.52,42.49 -1.06,-0.12 -2.56,-0.32 -3.54,-0.65 -0.99,-0.33 -2.39,-0.9 -3.27,-1.44 -16.89,-10.42 -8.51,-36.35 9.42,-43.18 19.99,-7.59 43.29,1.45 29.55,-24.99 -39.94,-11.44 -77.39,23.11 -72.9,54.96 2.99,21.13 9.8,12.82 12.74,33.89 -22.12,14.06 -73.35,44.56 -93.54,47.25 6.46,-22.34 16.15,-18.03 28.14,-33.22 l -16.11,-16.98 c -48.67,51.22 -21,5.23 -38.07,58.62 -4.14,12.96 2.15,3.01 -6.24,13.11 -13.05,-6.46 -12.18,-7.59 -19.3,-19.02 -20.98,8.54 -3.46,11.42 -36.8,14.14 l -20.36,-29.56 c -21.82,27.21 -6.94,22.81 -1.24,46.03 l 0.94,35.49 c -25.83,2.71 -40.12,-9.13 -78.64,36.66 -16.46,19.58 -16.2,13.56 -39.13,23.65 l -122.13,73.67 c -22.95,13.01 -64.99,39.47 -85.6,45.86 l -16.99,-21.66 c -4.26,7.01 -8.77,17.8 -9.19,21.57 -4.05,35.98 -9.58,13.02 -21.41,88.72 -1.91,12.23 -1.99,20.37 -4.55,31.67 -5.82,25.68 -4.39,1.87 -16.31,63.45 l -10.09,28.25 h -8.73 c -49.98,-28.89 -0.79,-66.53 1.42,-159.33 l -51.27,26.32 c -82.22,46.76 -166.21,90.7 -248.19,133.01 h -176.69 c 79.38,-49.26 234.83,-114.27 245.14,-133.6 -31.56,-20.05 -108.5,-41.65 -153.5,-47.06 -72.04,-8.65 -125.4,-7.6 -197.83,1.16 -81.41,9.86 -168.33,38.55 -249,57.15 -24.93,5.74 -70.25,11.05 -89.2,16.81 2.15,17.53 32.93,70.56 52.55,105.54 h -47.91 c -19.04,-34.14 -37.32,-66.04 -49.46,-89.28 -21.11,-40.41 -43.42,-83.11 -62.96,-126.94 -34.54,-77.53 -31.54,-108.64 -45.81,-145.56 -14.54,3.57 -33.02,15.28 -48.04,22.94 -26,13.24 -33.12,10.61 -38.57,36.98 -15.45,74.65 -25.89,199.89 -30.4,301.86 h -87.74 c -2.55,-25.03 -16.03,-20.14 -71.13,-94.79 -13.48,-18.28 -22.27,-37.02 -38.47,-52.79 l -108.77,127.36 -14.67,20.22 h -55.01 c 32.67,-43.8 67.59,-85.59 92.17,-115.29 78.72,-95.11 71.84,-50.59 52.01,-114.91 -17.28,-56.05 -20.63,-120.31 -17.6,-182.16 -61.66,22.95 -53.72,40.4 -170.19,61.69 -29.46,5.37 -21.89,6.41 -55.44,59.2 -24.26,38.18 -135.47,204.29 -191.58,291.47 h -106.13 l 56.92,-80.36 c 29.47,-42.49 31.76,-32.81 32.88,-95.32 1.82,-101.67 17.53,-295.95 13.43,-367.84 -115.71,46.96 -191.61,193.01 -237.51,295.74 -27.1,60.65 -53.23,125.34 -82.02,182.75 -14.84,29.6 -26.03,49.64 -35.94,65.03 h -51.24 c 64.23,-91.45 109.77,-233.52 129.01,-261.71 -73.33,-52.63 -123.59,-93.8 -183.94,-162.69 -16.41,-18.72 -39.24,-52.06 -53.9,-66 -7.25,9.91 -12.43,39.19 -15.72,54.97 -27.62,132.58 -76.02,301.65 -90.11,424.56 10.77,2.33 23.34,6.11 36.65,10.87 H 3255 l 20.24,-133.78 c 6.94,-35.06 17.76,-70.39 22.57,-103.12 -34.88,8.8 -205.36,96.38 -217.57,126.64 -5.25,13.01 -18.03,55.84 -33.47,110.26 h -86.33 l 94.33,-321.83 c 9.65,-31.25 12.19,-23.81 37.92,-38.51 l -11.54,-18.87 c -9.7,4.82 -14.63,8.11 -29.04,4.34 -11.42,-2.99 -10.61,-3.75 -19.31,-17.33 -0.45,-0.71 -1.13,-2.23 -1.81,-3.27 14.2,-8.68 33.12,-8.03 49.9,-9.32 4.19,-23.28 20.42,-68.12 26.92,-90.03 20.37,-68.65 78.41,-231.82 86.53,-278.91 -159.03,35.67 -355.52,181.67 -471.78,292.94 l -46.5,47.39 c -5.69,10.22 -2.54,0.66 -2.29,7.09 31.09,20.09 190.29,26.26 239.97,29.42 -6.03,10.39 -0.78,2.26 -7.32,9.87 -30.32,35.24 -22.67,21.87 -59.73,45.84 -51.25,33.16 -18.29,46.5 -38.83,76.65 l -39.2,-14.04 c 12.57,-30.4 37,-52.28 44.92,-83.92 -171.16,-5.54 -157.87,-55.52 -208.87,5.7 -72.56,87.12 -111.24,140.37 -170.58,227.14 -30.72,44.95 -30.69,35.2 -16.99,93.06 2.78,11.76 5.49,23.98 8.08,36.59 h -39.35 c -2.83,-12.33 -8.74,-22.48 -21.95,-27.16 l -14.88,27.16 h -58.4 v -61.56 c 4.87,-7.89 9.81,-15.76 14.87,-23.61 16.71,-25.95 31.95,-52.9 51.77,-81.15 10.96,-15.62 47.18,-64.67 51.98,-79.52 -28.36,-16.88 -72.77,-24.21 -118.62,-24.67 v -42.38 c 30.85,1.49 61.39,5.98 87.55,12.93 18.55,4.94 43.03,14.18 61.12,15.83 l 118.21,-146.47 c 93.54,-105.21 164.64,-167.02 278.22,-253.58 12.26,-9.35 23.08,-12.99 31.53,-24.6 -61.65,-27 -293.25,14.45 -372.98,34.75 -59.69,15.2 -78.59,14.37 -95.27,43.19 -30.5,52.65 -71.69,80.46 -108.38,119.27 v -59.89 l 7.69,-7.52 c 62.22,-60.86 86.74,-88.36 105.21,-193.18 7.43,-42.14 13.42,-143.46 2.02,-185.12 l -19.76,9.53 c -40.03,26.57 -68.8,46.33 -95.16,64.13 v -50.53 c 34.82,-24.08 81.21,-53.48 119.78,-83.62 323.93,-253.31 263.29,-395.04 305.29,-457.92 l 18.62,-9.85 c 15.16,-7.97 27.33,-19.84 18.39,-39.77 -24.5,8.04 7.16,9.73 -17.29,24.72 -16.21,9.95 -22.4,-2.54 -33.48,-9.76 12,-22.73 11.67,-6.64 21.16,-21.18 4.8,-7.33 6.35,-26.64 8.88,-34.14 1.12,0.75 2.77,0.64 3.29,2.38 0.5,1.7 2.5,1.81 3.18,2.37 42.24,35.24 26.41,76.6 5,156.54 -6.99,26.05 -15.4,50.23 -25.37,77.58 -22.79,62.46 -51.14,74.12 -4.27,75.92 53.91,2.09 150.3,-11.92 203.88,-18.34 54.43,-94.42 66.63,-140.16 142.84,-244.7 40.98,-56.19 82.93,-108.21 130.35,-158.73 14.76,-15.74 40.26,-36.59 49.46,-52.2 -24.8,-5.29 -70.55,-26.58 -104.66,-36.99 -105.74,-32.28 -50.72,-17.8 -70.09,-58.78 69.9,-22.73 209.95,-159.21 224.92,-217.81 -197.82,65.95 -282.17,56.9 -467.5,78.87 -8.8,48.69 -32.14,177.31 -28.76,218.87 65.43,-0.61 196.72,-34.29 243.45,-65.54 l 8.78,12.8 c 0.63,0.65 1.8,1.53 2.46,2.21 10.9,10.99 11.02,-0.58 12.69,20.93 -33.03,16.55 -11.95,-4.44 -39.92,-8.34 -20.03,-2.8 -26.22,10.48 -27.97,27.05 24.43,-11.34 -5.54,-17.8 34.81,-15.07 -9.98,23.72 -34.04,22.56 -56.7,30.76 l -44.14,12.59 c -50.75,13.1 -48.24,15.23 -105.39,21.53 -2.79,0.3 -13.4,1.4 -16.29,2.1 -1.23,0.3 -2.6,0.66 -3.71,0.99 -9.79,2.95 -12.85,6.12 -15.72,17.79 l -6.65,56.4 c -4.21,23.42 -8.98,20.36 -9.28,31.6 -0.29,11.27 8.4,10.87 0.36,33.02 -1.18,0.56 -3.24,-0.33 -3.8,0.9 l -34.68,-24.27 44.06,-377.07 c -46.26,1.26 -139.42,-9.8 -174.37,-5.8 -21.84,2.5 -160.78,155.64 -176.71,173.06 -22.28,24.35 -66.41,65.27 -83.63,92.9 8.6,31.49 32.21,59.88 42.85,103.75 13.91,57.33 4.11,84.99 9.35,138.21 50.63,-4.76 102.41,-10.43 151.79,-20.62 39.12,-8.08 109.52,-30.68 139.31,-33.42 11.41,9.97 19.45,17.69 30.17,27.19 -35.26,36.62 -307.65,64.2 -333.94,70.9 -15.94,35.25 -22.8,62.7 -42.23,99.11 -13.53,25.36 -30.47,51.38 -48.57,76.57 v -78.19 c 6.1,-9.95 11.29,-18.94 15.24,-26.57 41.34,-79.72 61.83,-158.48 36.69,-249.16 -6.02,-21.75 -18.65,-55.14 -34.72,-71.06 -5.09,5.6 -10.89,12.21 -17.21,19.66 v -124.73 l 60.66,-68.32 c 15,-15.97 10.16,-6.98 12.3,-23.16 -18,-0.25 -43.32,-1.47 -72.96,-3.2 v -43.61 l 114.91,7.53 c 12.04,-7.75 13.94,-11.5 23.79,-21.04 l 282.64,-272.95 c 48.45,-44.75 51.5,-46.18 51.47,-91.42 v -4.68 c -0.07,-75.16 -16.07,-104.14 -28.06,-164.46 -23.97,9.32 -55.27,38.32 -74.43,52.27 l -146.32,106.01 c -112.07,94.73 -185.8,170.28 -224,307.17 V 7205.8 c 33.36,-66.22 78.52,-118.3 137.32,-174.18 -20.95,-38.08 -44.06,-49.38 -54.13,-126.85 -5.06,-39.06 -3.12,-140.57 9.23,-170.27 -16.87,0.63 -52.83,30.46 -92.42,71.18 v -59.38 c 14.01,-6.66 71.56,-56.32 113.33,-81.16 45.66,-27.16 81.11,-44.55 129.58,-66.78 46.07,-21.14 259.89,-92.83 280.39,-109.18 -39.13,-48.76 -150.22,-123.44 -210.51,-163.88 -26.65,-17.9 -56.45,-31.3 -80.66,-47.13 -22.61,22.65 -45.37,77.58 -66.01,110.89 -47.49,76.65 -102.83,147.24 -166.12,209.13 v -61.86 c 22.72,-24.39 42.77,-47.48 55.01,-63.11 42.38,-54.14 114.7,-157.72 135.01,-218.53 l -161.14,-71.03 c -4.99,4.75 -15.61,18.5 -28.88,36.61 v -144.08 c 11.78,-16.22 22.51,-31.65 36.2,-51.47 15.21,-22 50.15,-63.67 60.1,-85.42 -33.21,3.58 -65.24,10.21 -96.3,18.93 v -41.47 c 25.54,-7.08 52.6,-13.31 85.31,-18.32 76.89,-11.77 39.59,-3.66 120.73,-101.92 44.63,-54.03 130.13,-165.92 175.48,-213.2 15.82,-16.49 19.97,-15.27 25.78,-36.38 -128.97,-35.26 -196.18,-250.58 -229.3,-363 -23.38,2.03 -45.6,28.84 -57.25,48.52 -11.28,19.05 -42.26,42.25 -65.42,33.81 -1.13,-26.12 48.47,-76.47 69.16,-95.87 z m 4145.38,711.29 v 64.75 c -9.83,-2.71 -19.54,-5.23 -29.07,-6.67 3.3,-18.47 15.49,-38.8 29.07,-58.08 z m 0,2929.7 v 129.61 c -69.63,84.31 -160.89,197 -169.57,213.17 43.03,5.21 102.61,-11.5 169.57,-29.7 v 42.85 c -62.65,17.78 -127.04,33.85 -199.74,29.68 -25.63,37.94 -50.96,77.44 -75,118.24 H 6090.8 c 32.51,-4.82 65.98,-8.73 104.64,-13.86 l 108.91,-168.14 c 92.63,-127.81 184.19,-224.09 260.07,-321.85 z m -3885.51,503.85 h -43.65 l 23.59,-56.99 c 8.49,-19.91 7.98,-29.26 21.55,-53.49 20.63,2.22 1.4,-5.46 19.96,8.65 5.34,4.06 10.09,9.49 15.01,14.98 -4.73,12.37 -6.37,13.39 -11.49,23.68 z M 2290.64,5598.24 v -167.3 l 8.97,-40.61 c 8.03,-35.99 21.44,-65.02 28.76,-97.39 18.05,0.9 32.12,0.31 45.87,-3.19 -5.04,31.28 -25.01,79.85 -34.25,117.5 -9.21,37.44 -18.45,80.97 -28.11,121.2 -5.13,21.38 -12.17,45.64 -21.24,69.79 z m 2420.18,1856.99 c 12.68,-15.34 25.47,-49.1 36.96,-69.53 163.98,-291.58 128.25,-362.18 207.69,-662.49 29.33,-110.86 6.78,-51.24 -45.56,-239.39 -26.59,-95.61 -42.23,-274.92 -58.38,-380.68 -12.82,5.52 -8.36,3.21 -20.6,11.93 l -127.44,100.81 c -25.49,20.65 -42.73,37.07 -68.68,59.69 -34.99,30.51 -49.44,25.78 -50.97,78.04 -2.29,77.84 -15.09,152.55 -23.65,228.07 -2.61,23.09 18.58,32.06 48.4,71.6 109.86,145.74 145.17,314.05 76.87,490.07 -14.8,38.11 -41.75,87.87 -68.07,120.53 -11.31,14.02 -21.09,20.77 -13.46,42.94 25.32,73.68 55.28,104.63 106.89,148.41 z m 1283.62,331.33 c -54.48,135.83 -134.16,267.51 -219.68,375.18 -36.72,46.24 -45.65,36.74 -32.79,104.62 11.49,60.6 89.97,317.02 106.31,340.75 55.36,-19.05 134.41,-80.99 262.43,-95.58 23.06,-36.28 49.44,-98.62 74.71,-147.05 30.13,-57.72 53.32,-95.72 80.48,-147.52 14.45,-27.56 1.68,-21.92 -20.97,-79.06 -11.07,-27.92 -20.75,-55.8 -28.87,-84.47 -38.1,-134.6 -28.53,-194.91 -19.39,-325.25 l -97.06,33.66 c -35.22,11.22 -68.99,15.25 -105.17,24.72 z m -698.47,535.72 c -32.06,13.79 7.61,-1.59 -20.12,-7.65 l 9.61,50.1 -34.39,-22.93 c 2.79,-87.37 69.78,-255.91 71.04,-285.84 -115.15,19.62 -183.51,90.53 -254.28,159.32 -43.41,42.19 -32.93,25.94 -42.7,93.13 -11.45,78.62 -35.69,144.4 -59.77,213.98 -24.05,69.53 -44,138.79 -59.61,214.81 17.71,-1.59 85.36,-45.67 105.04,-58.26 l 203.94,-129.32 c 21.85,-18.44 13.02,-84.48 23.9,-138.5 0.94,-0.44 2.7,-1.45 3.07,-0.45 l 21.16,-1.23 c -9.45,-23.76 -20.15,-13.1 -17.02,-49.85 17.96,2.25 28.8,13.32 38.76,23.48 0.99,32.8 -17.08,94.44 -8.89,123.96 l 63.82,-46.95 c 13.45,-9.2 19.57,-14.81 32.89,-24.48 l 159.16,-135.2 c 55.62,-50.96 195.62,-195.74 219.01,-249.35 -7.39,-5.62 -58.62,-22.86 -73.92,-29.71 -29.37,-13.14 -44.49,-22.71 -73.44,-36.18 -61.97,-28.87 -105.02,-40.64 -179.82,-42.59 -48.44,106.61 -76.93,172.1 -104.08,282.9 -4.6,18.76 -12.93,33.73 -17.04,48.11 -3.75,13.1 -0.15,33.52 -6.32,48.7 z m 311.22,-1784.89 c -24.24,-3.7 -2.07,-1.61 -21.91,-8.43 l -12.37,15.29 c 12.79,18.45 31.33,20.51 20.16,47.4 -7.06,16.98 -28.17,23.75 -39.43,37.08 -11.36,13.43 -20.61,29.39 -9.41,47.76 16.94,27.83 16.07,21.11 2.49,57.78 -14.47,39.11 -25.75,74.4 -39.23,112.26 -11.62,32.64 -32.68,76.74 -40.34,110.36 62.94,-32.19 258.43,-278.3 274.42,-335.72 26.94,5.19 14.87,10.48 36.07,-3.97 -15.85,-31.78 -29.4,9.61 16.95,-76.55 6.89,-12.79 17.78,-25.86 25.4,-37.66 10.41,-16.15 6.61,-28.21 26.24,-37.82 35.98,38.43 17.7,23.54 55.11,42.91 l 7.78,4.48 c -11.89,24.12 -26.86,46.64 -39.47,67.74 -50.37,84.33 -105.87,173.78 -165.5,250.75 -22.62,29.21 -14.91,45.55 -10.77,85.4 6.52,62.66 14.68,123.56 20.79,186.37 20.84,-12.91 84.16,-101.11 245.59,-165.09 22.81,-9.05 85.16,-28.41 98.7,-37.04 -19.14,-68.96 -40.32,-56.74 -57.99,-205.54 l -28.9,-234.03 c 5.45,-5.64 2.13,-2.88 8.75,-7.86 4.52,-3.4 4.89,-3.2 10,-6.17 -2.93,-11.08 -4.78,-10.54 -11.85,-20.61 l -35.62,4.73 c -13.86,-18.8 -34.35,-36.6 -43.37,-58.95 11.26,-15.86 8.96,-5.95 17.64,-16.49 14.85,-18.03 -21.99,16.3 22.94,-58.23 14.35,-23.81 42.93,-62.72 50.06,-84.61 -120.19,8.24 -209.19,101.6 -301.61,140.19 -34.66,14.47 -33.94,6.25 -43.3,45.32 -9.3,38.88 -23.49,105.94 -38.02,138.95 z M 3693.45,5511.84 c 18.44,31.19 12.12,41.01 4.49,80.03 -3.66,-4.04 -2.89,-2.03 -6.35,-8.91 -14.93,-29.72 1.18,-24.82 -17.91,-32.88 -6.96,13.28 4.09,27.59 6.73,47.31 -24.88,-9.18 -29.7,-27.47 -49.08,-19.48 7.34,14.26 41.93,29.54 57.01,46.15 12.82,32.43 -69.36,400.94 -84.82,460.56 -43.68,168.56 -36.39,57.8 36.2,175.53 35.02,56.79 54.79,139.43 62.17,212.31 39.58,-13.95 79.81,-52.33 103.66,-84.54 38.96,-52.64 45.17,-56.33 53.37,-133.07 12.13,-113.49 29.97,-219.11 48.48,-330.3 8.81,-52.93 58.47,-281.58 38.85,-317.18 -38.9,-70.57 -139.14,-163.1 -224.23,-156.52 -11.46,66.73 -9.19,36.93 -28.57,60.99 z m 1585.86,2021.24 -67.49,-0.59 -214.96,443.74 c 10.4,9.05 115.73,65.19 161.9,101.05 48.96,-17.43 67.55,-47.17 153.37,-61.63 33.22,-5.6 30.37,-0.83 43.04,-31.19 99.9,-239.83 283.46,-335.4 315.21,-567.23 -72.34,17.7 -183.9,116.58 -391.07,115.85 z M 2345.84,6149.95 c 41.34,19.42 94.05,39.99 132.12,58.42 43.47,21.02 86.1,48.81 130.11,68.39 43.67,-25.4 85.17,-101.48 106.42,-147.58 26.46,-57.42 49.71,-122.7 72.72,-181.61 35.81,-91.7 71.45,-168.55 137.08,-241.36 30.23,-33.53 40.23,-34.31 68.07,-58.76 l -55.29,-213.62 c -18.83,8.63 -32,24.85 -45.96,39.25 -61.84,63.76 -141.58,147.33 -194.74,213.26 -75.36,93.5 -145.23,172.48 -218.04,274.85 -25.54,35.92 -44.92,61.32 -68.42,92.66 -8.53,11.39 -24.17,33.46 -33.58,46.96 -10.79,15.48 -28.83,34.7 -30.49,49.14 z m 329.73,437.42 c -15.8,85.33 124.45,193.88 131.33,438.36 40.89,-21.77 387.98,-366.07 463.83,-460.36 18.65,-23.17 0.26,-45.54 -21.06,-105.01 -6.34,-17.66 -12.76,-35.42 -20.07,-55.49 -3.56,-9.79 -6.38,-19.49 -9.37,-28.37 l -15.11,-28.22 c -80.39,66.2 -287.67,152.44 -385.61,187.07 -49.65,17.56 -98.39,32.8 -143.94,52.02 z m 2432.85,2324.11 c -0.15,86.96 -5.8,116.86 -16.7,197.67 51.27,-8.39 90.15,-17.83 147.32,-23.39 25.14,-2.44 51.84,-3.76 78.85,-3.28 l 79.35,2.03 c 14.04,-19.21 44.83,-104.98 53.76,-137.29 52.83,-191.32 47.02,-324.63 67.46,-519.38 l -396.11,279.76 c -25.59,16.37 -16.67,34.74 -15.62,91.65 0.7,37.34 1.77,74.9 1.69,112.23 z M 3929.96,6484.5 c 0,49.29 1.85,108.31 8.31,157.1 l 17.54,101.1 c 1.05,4.79 2.07,11.18 3.53,15.63 l 8.46,15.95 c 33.99,-22.5 131.05,-116.22 165.8,-147.72 60.06,-54.44 38.21,-22.19 38.94,-104.66 1.06,-122.39 54.14,-265.29 106.78,-371.47 26.79,-54.02 14.5,-19.83 -26.81,-96.3 -24.45,-45.26 -24.61,-67.3 -38.8,-121.04 -12.81,4.69 -5.72,1.69 -14.51,9 l -102.88,82.68 c -99.08,65.96 -125.49,34.82 -131.81,76.39 -18.69,122.91 -34.55,254.59 -34.55,383.34 z m 1593.58,2342.81 c -41.58,173.86 -22.83,106.46 -82.16,268.13 38.58,12.85 82.36,23.37 121.54,41.9 49.22,23.29 32.57,17.96 105.89,-21.1 64.87,-34.57 143.51,-80.34 210.23,-118.27 64.08,-36.44 45.17,-20.28 69.7,-91.65 14.38,-41.82 27.89,-81.39 43.11,-121.88 l 95.73,-226.62 c -96.76,13.07 -209,83.32 -285.82,126.72 -71.33,40.28 -115.77,75.34 -200.16,114.5 -14.2,6.59 -24.2,10.36 -38.04,14.82 z M 2658.22,8099.72 c -17.07,38.2 -65.81,88.93 -95.03,118.22 -19.55,19.6 -88.42,84.8 -115.83,98.84 2.98,52.92 8.32,101.52 6.1,155.15 -2.44,58.89 -13.57,89.79 -21.68,138.24 38.7,-4.59 112.63,-35.47 199.01,-42.37 24.67,-38.49 40.27,-70.39 72.12,-106.92 45.14,-51.79 107.58,-99.08 162.42,-141.85 12.81,-10 18.17,-13.21 32.87,-23.99 84.21,-61.79 163.03,-135.36 193.66,-236.16 -72.99,-4.74 -238.88,54.89 -433.64,40.84 z m 2976.03,-462.81 c 93.08,-17.39 187.31,-127.24 244.25,-192.56 38.45,-44.12 100.51,-109.16 147.67,-142.23 72.7,-50.96 44.86,21.54 108.16,-185.1 10.32,-33.69 28.25,-77.21 35.16,-113.45 -1.02,-0.93 -2.62,-3.55 -3.19,-2.62 -0.54,0.92 -2.4,-1.97 -3.16,-2.51 -30.97,-22.29 -25.33,-11.03 -60.62,-45.06 -17.35,-16.71 -12.91,-14.81 -35.92,-9.71 -100.23,22.22 -237.7,103.36 -308.38,178.5 -48.25,51.27 -34.25,42.91 -32.49,119.81 4.06,178.13 -22.63,245.92 -91.48,394.93 z M 4977.6,5364.19 c -21.16,53.1 -84.39,275.86 -116.15,368.38 L 4759.2,5998.8 c -10.4,25.26 -31.67,62.46 -37.42,91.21 20.79,-10.08 54.85,-36.71 70.84,-49.22 70.79,-55.43 129.61,-86.26 206.2,-136.14 8.49,-80.9 3.56,-102.1 36.34,-171.37 73.79,-155.93 259.35,-275.73 295.33,-333.68 l -70.47,-147.7 c -16.93,2.66 -45.75,22.96 -61.49,31.89 -23.9,13.57 -41.76,22.49 -67.3,32.99 -49.27,20.26 -98.1,38.23 -153.63,47.41 z M 3233.54,7025.66 c 163.49,-32.74 233.94,-216.39 377.55,-326.04 16.9,-12.9 44.13,-27.7 62.74,-42.1 3.92,-91.94 -18.68,-299.92 -77.56,-387.83 -9.23,-13.76 -23.78,-27.72 -32.11,-38.9 l -14.91,19.99 c -2.61,6.11 -5.51,15.77 -9.3,24.86 -6.18,14.87 -12.9,30.82 -21.06,48.6 -59.19,129.06 -130.15,238 -222.62,341.13 -49.57,55.29 -33.11,37.23 -33.23,109.07 -0.2,124.22 -29.01,219.96 -29.5,251.22 z m 176.56,1468.47 c 17.94,-8.54 19.07,-13.08 37.19,-35.9 10.62,-13.39 17.18,-21.1 29.41,-37.19 20.59,-27.06 40.33,-57.12 57.99,-79.69 52.14,-66.61 80.07,-82.69 164.99,-110.3 10.79,-102.37 46.76,-187.9 53.42,-245.34 10.17,-87.6 -21.79,-175.96 -48.57,-250.02 -13.06,7.35 -90.19,90.52 -156.64,137.24 -101.75,71.53 -56.99,-1.88 -113.73,179.64 -24.13,77.26 -43.76,146.29 -67.8,224.71 -21.08,68.67 -16.78,40.16 10.33,103.14 13.87,32.19 28.26,78.61 33.41,113.71 z m 249.1,510.94 52.37,-94.72 c 20.56,-33.78 43.22,-57.08 63.74,-87.71 -19.56,-73.98 -49.23,-90.53 -76.82,-244.15 -26.56,-148 -4.36,-182.2 -8.8,-300.25 -80.68,20.79 -119.7,86.43 -163.99,148.39 l -69.14,87.31 c -63.01,67.18 -26.1,14.7 -40.83,187.02 -3.02,35.31 -11.01,46.71 6.55,70.61 57.17,77.75 107.72,140.08 188.28,201.35 12.38,9.41 28.24,27.3 48.64,32.15 z m -515.92,-956.3 c -2.41,3.33 -3.18,4.05 -6.16,10.23 -9.04,18.79 -8.24,34.56 -29.03,75.14 -13.92,27.15 -29.7,48.5 -47.59,70.34 -81.76,99.78 -345.25,255.48 -371.57,354.43 51.34,-2.97 99.21,-4.68 150.72,-2.13 62.92,3.11 70.46,21.42 116.22,-4.84 61.71,-35.42 135.84,-69.68 207.78,-92.89 82.68,-26.65 52.08,10.46 113.76,-182.99 l 68.12,-229.69 c -41.72,-17.25 -156.15,-4.81 -202.25,2.4 z m 1280.59,-367.15 c 21.6,7.2 23.11,-6.02 36.48,71.08 26.99,155.44 -28.79,366.25 22.37,533.39 13.66,-10.3 21.86,-26.53 34.26,-44.05 l 94.53,-132.76 c 20.78,-27.57 112.64,-156.56 134.34,-167.84 -0.58,-51.52 -42.71,-154.69 -56.18,-211.11 -23.39,-98.03 -13.61,-140.77 6.07,-231.08 l -50.51,-44.08 c -16.74,-16.11 -3.88,-9.1 -23.87,-14.89 -12.67,45.58 -59.93,99.33 -96.47,122.25 -81.08,50.82 -102.52,25.51 -101.02,119.09 z m 797.28,-1341.2 192.73,-127.22 209.74,-114.1 c 14.91,-132.72 41.41,-254.45 47.9,-392.76 -27.4,8.49 -67.98,35.27 -91.09,46.09 -33.62,15.74 -58.63,28.69 -94.65,43.8 l -148.82,52.2 c -29.47,8.86 -22.84,10.35 -27.01,43.64 -18.03,143.65 -81.19,197.32 -88.8,448.35 z m 228.19,1560.99 c 34.66,6.26 61.29,5.27 94.77,15.52 30.09,9.23 50.4,17.53 77.47,30.51 37.94,18.23 113.34,62.24 159.19,60.44 21.85,-28.29 70.22,-117.17 87.7,-151.7 28.73,-56.8 53.33,-111.89 74.66,-166.86 19.16,-49.44 122.34,-326.04 120.81,-361.18 -10.9,9.7 -26.17,16.13 -39.61,28.59 -13.68,12.72 -27.24,24.43 -39.38,36.66 -62.41,62.8 -95.71,109.06 -161.4,170.74 -44.73,42 -84.07,82.28 -154.5,107.25 -92.59,32.82 -40.45,-12.17 -97.1,55.6 -28.2,33.72 -115.74,136.59 -122.61,174.43 z M 4888.07,6071.76 c 5.09,41.38 17.85,88.9 23.45,135.23 5.29,43.96 8.57,93.52 15.41,137.7 6.15,39.68 36.75,210.9 67.9,248.95 8.77,-9.32 13.71,-21.03 20.72,-33.03 29.87,-51.16 83.48,-111.92 128,-151.6 41.49,-36.97 35.24,-15.09 35.07,-83.5 -0.52,-203.38 75.61,-315.58 89.63,-450.82 -49.72,8.76 -155.18,64.39 -202.6,89.25 -28.31,14.85 -61.41,33.94 -90.29,52.77 -23.62,15.42 -64.56,44.86 -87.29,55.05 z m -49.81,1242.17 c 66.74,-6.56 124.22,9.15 178.94,28.15 44.32,15.39 126.32,47.11 176.36,23.66 30.16,-27.05 254.72,-582.5 267.35,-651.19 -120.58,50.32 -369.23,392.99 -539.42,452.04 -32.97,11.45 -27.07,6 -38.38,37.51 -12.25,34.11 -36.8,78.97 -44.85,109.83 z m 396.24,177.26 c 160.8,-1.06 211.84,-15.75 351.5,-83.01 32.73,-15.76 72.15,-27.41 94.47,-47.86 3.86,-84.47 1.91,-152.01 -7.18,-231.68 -6.04,-52.86 -13.84,-185.46 -26.32,-223.97 -66.9,61.37 -92.7,109.67 -202.64,170.35 -47.61,26.28 -35.8,25.74 -55.99,72.31 z m -323.99,-366.24 c 54.83,-15.87 142.3,-92.87 186.21,-134.8 117.86,-112.54 66.37,-56.36 107.17,-208.26 38.54,-143.49 158.03,-377.22 154.15,-482.16 -86.84,40.19 -274.42,207 -323.98,316.48 -30.16,66.63 -49.46,169.45 -66.87,247.75 z m 996.76,-938.88 c 106.93,-23.77 34.28,-7.1 116.15,-14.6 6.15,-18.16 58.28,-87.53 70.71,-103.35 27.31,-34.73 51.22,-64.1 80.42,-94.52 64.26,-66.92 121.89,-119.62 194.75,-162.43 1.08,-35.95 -6.06,-83.8 -4.97,-126.42 1.08,-41.99 6.11,-77.91 12.06,-116.43 -81.82,-10.52 -215.86,77.79 -277.49,130.52 l -106.4,97.91 c -21.84,19.42 -25.5,13.54 -21.85,44.31 5.21,43.88 3.07,84.56 -3.48,126.09 -18.38,116.47 -50.88,169.81 -59.9,218.92 z m -1126.73,1703.27 17.31,-15.79 c 35.05,-37.53 72.36,-86.62 110.22,-121.85 l 150.52,-143.56 c 58.06,-50.14 36.81,-30.58 75.4,-109.19 62.63,-127.59 50.04,-65.96 -67.41,-97.41 -63.39,-16.97 -128.18,-50.42 -202.11,-47.98 -56.86,1.88 -56.28,9.32 -76.94,47.81 -14,26.07 -28.98,56.07 -39.58,82.4 -65.82,163.4 -3.57,260.16 32.59,405.57 z m -2004.89,-1785.92 91.59,73.56 c 32.82,24.91 67.89,47.66 98.76,67.38 31.95,20.43 132.91,73.05 170.65,84.05 25.22,7.36 39.19,-8.94 57.27,-21.8 -1.7,-24.67 -36.13,-115.64 -46.98,-149.57 l -143.49,-462.92 c -52.05,28.08 -112.82,125.76 -137.75,179.67 -18.12,39.2 -85.05,196.37 -90.05,229.63 z m 1187.33,2104.05 c 0.86,-1.2 1.74,-4.62 2.05,-3.92 0.31,0.69 1.52,-2.9 1.91,-3.95 l 2.88,-7.95 c 0.22,-0.77 2.42,-13.27 2.67,-14.89 1.43,-9.35 2.91,-21.03 4.22,-32.16 l 36.1,-198.54 c 11.5,-44.12 22.29,-81.53 35.28,-120.78 l 41.4,-113.16 c -93.34,-62.97 -283.94,-142.96 -417.54,-154.84 6.4,24.51 27.07,60.31 38.59,84.33 120.17,250.74 77,358.68 83.59,377.59 10.04,28.82 124.14,171.14 168.85,188.27 z m 254.4,-1660.98 141.17,-131.97 c 45.08,-42.15 181,-162.35 204.58,-203.32 17.65,-30.69 31.05,-59.56 46.57,-90.52 31.58,-62.98 61,-128.11 83.9,-186.57 -20.6,-5.57 -220.74,-5.5 -243.63,-0.61 -81.82,127.99 -255.31,432.27 -232.59,612.99 z m -238.83,-511.53 c 110.83,-39.03 205.35,-128.07 275.34,-212.88 l 136.24,-161.54 c -21.31,-53.08 -73.74,-106.19 -127.53,-130.53 -37.28,-16.88 -161.38,-51.27 -206.24,-44.52 -5.95,96.07 -23.72,186.81 -35.59,278.87 -7.07,54.79 -44.27,240.99 -42.22,270.6 z m 204.83,2877.83 c 107.03,0.13 230.75,-139.5 316.38,-205.95 119.06,-92.4 110.8,-26.09 141.24,-119.38 l 95.39,-249.86 c 8.77,-20.72 25.17,-43.13 13.83,-58.59 -13.49,-18.39 -72.82,-67.69 -102.56,-73.89 l -59.19,83.19 c -21.24,29.82 -40.17,57.22 -59.84,86.84 l -287.23,445.93 c -16.47,26.6 -43.57,64.44 -58.02,91.71 z m 28.22,-742.46 c 26.79,-66.82 45.32,-117.65 81.27,-178.2 36.39,-61.28 78.02,-104.72 130.63,-133.62 8.51,-84.89 -24.12,-156.67 -46.21,-227.98 -10.56,-34.06 -56.34,-195.13 -67.16,-211.62 -27.17,21.52 -176.06,411.87 -209.97,528.06 -13.99,48.02 28.44,36.27 84.78,173.84 4.1,10.05 5.7,14.68 9.13,23.77 5.54,14.78 5.54,17.25 17.53,25.75 z m -74.32,441.88 86.06,70.17 c 13.64,-8.44 90.02,-132.83 104.54,-155.48 34.1,-53.18 70.38,-108.2 103.12,-157.77 48.12,-72.87 -2.18,-23.14 -12.04,-201.03 -4.63,-83.59 0.63,-174.63 5.53,-257.17 -75.69,21.61 -160.58,235.33 -184.59,310.15 -20.98,65.39 -97.44,336.64 -102.62,391.13 z m 27.1,-1592.52 c 24.89,9.81 66.39,13.92 98.25,25.41 28.53,10.28 72.31,34.96 83.8,35.46 72.39,-229.85 127.83,-420.15 149.11,-674.74 -12.9,4.04 -156.11,142.02 -183.48,169.42 -20.11,20.15 -41.42,40.66 -63.21,60.28 -32.05,28.89 -24.13,37.24 -34.02,84.1 l -51.44,296.47 c 0.14,0.83 0.49,2.45 0.99,3.6 z m -355.7,1766.84 c 12.97,-3.63 37.26,-24.86 55.47,-36.73 17.69,-11.51 45.45,-18.47 56.67,-34.48 0.02,-0.03 40.69,-436.12 39.68,-458.51 -50.56,-26.9 -105.67,-80.99 -141.03,-127.41 -12.28,-16.15 -28.51,-40.1 -39.73,-51.93 -0.86,1.01 -1.96,1.35 -2.29,3.25 l -12.38,34.79 c -37.81,163.76 -55.88,348.87 -12.74,513.19 11.9,45.28 32.68,120.78 56.35,157.83 z M 2680.38,7265.2 c 91.18,12.49 283.8,-2.4 379.36,-21.16 33.84,-6.64 48.41,-41.09 63.45,-68.22 55.76,-100.53 111.32,-291.6 95,-422.09 -7.62,2.53 -22.77,20.41 -29.45,27.41 l -372.4,354.24 c -29.34,26.59 -122.47,107.55 -135.96,129.82 z m 292.59,764.79 c 57.92,0.47 175.29,-30.67 281.21,-32.49 36.09,-0.61 73.92,5.5 107.52,3.99 15.05,-83.19 74.48,-233.28 83.17,-310.52 l -18.66,-12.75 c -33.89,-18.47 -115.76,-62.12 -145.35,-69.68 l -88.13,93.02 c -36.04,42.23 -40.66,43.5 -81.18,98.58 -46.55,63.25 -102.42,146.85 -138.58,229.85 z m 462.21,-2707.72 c 7.51,105.13 10.54,213.62 6.95,320.51 -1.76,52.52 -7.03,99.57 -13.12,149.69 -5.39,44.32 -23.46,99.34 -26.5,132.74 31.75,-1.1 153.3,-35.68 163.7,-63.31 l 35.52,-200.99 c 12.98,10.4 6.83,11.96 21.19,11.96 0.23,-28.19 -24.88,-7.05 -12.39,-68.53 20.73,13.21 24.24,33.55 42.82,46.35 12.37,-21.19 -33.48,-46.49 -37.45,-73.91 -4.01,-27.64 51.89,-275.85 58.33,-319.66 -38.5,7.97 -77.19,23.74 -116.92,35.67 -44.12,13.23 -82.02,20.08 -122.13,29.48 z m 503.69,1754.28 c -3.72,12.66 53.32,240.02 61.21,251.52 l 84.13,76.91 c 27.5,19.19 75.69,50.67 112.34,58.77 9.43,-37.25 105.06,-249.29 133.28,-338.68 -47.16,-31.74 -107.76,-52.03 -174.26,-61.88 -52.44,-7.75 -175.17,-6.09 -216.7,13.36 z m -721.5,-4.98 c -24.44,59.39 -27.84,77.56 -60.43,131.67 -9.19,15.25 -5.72,8.16 -11.46,21.65 120.38,-18.91 334.99,-111.94 443.73,-176.96 l 127.84,-81.77 c -3.11,-35.34 -16.26,-83.63 -22.81,-123.11 -7.05,-42.47 -10.81,-91.36 -14.7,-135.2 -60.65,3.88 -228.75,244.78 -312.44,302.52 -54.03,37.28 -82.89,46.1 -149.73,61.2 z M 5739.06,5907.86 c 103.91,-16.4 196.8,-119.37 276.63,-191.54 88.01,-79.59 98.41,-62.82 99.54,-129.63 0.94,-55.69 -5.2,-163.36 -30.7,-200.58 l -295.37,241.46 c -38.42,24.79 -28.23,20.68 -31.47,75.98 -4.12,70.22 -13.39,133.86 -18.63,204.31 z M 3133.98,7503.81 c 22.01,10.6 108.63,38.55 164.99,64.16 l 157.72,75.93 c 19.05,-32.23 106.99,-457.75 96.43,-479.33 l -196.52,88.08 c -8.26,6.95 -27.43,46.25 -35.66,59.05 -87.42,136.32 -155.27,157.15 -186.96,192.11 z M 5401.8,6271.15 c 6.75,186.29 -148.71,406.53 -167.82,575.25 l 143.57,-126.46 c 21.31,-16.66 49.63,-39 78.67,-54.68 42.78,-23.08 35.1,-36.52 49.27,-82.17 31.23,-100.48 92.38,-324.83 106.24,-426.52 -42.09,9.97 -167.19,89.09 -209.93,114.58 z M 3099.88,5702.68 c 16.83,-5.24 45.66,-32.57 66.91,-46.79 40.79,-27.3 96.81,-62.48 145.11,-83.83 27.71,-12.25 60.66,-20.12 86.32,-32.16 8.81,-53.27 -3.89,-150.93 -4.9,-209.19 -31.9,-2.98 -79.29,2.7 -115.03,1.76 -42.16,-1.1 -74.77,-7.91 -113.3,-11.05 -13.99,26.44 -80.69,85.14 -107.74,106.92 -25.48,20.52 -29.25,12.6 -20.81,46.59 11.72,47.16 47.66,197.67 63.44,227.75 z m 130.2,428.22 c 58.85,-20.09 120.08,-182.21 133.26,-227.89 16.59,-57.49 48.78,-258.38 34.04,-318.35 -88.24,28.65 -159.79,71.16 -230.42,123.37 -41.03,30.35 -56.73,36.89 -50.67,58.05 17.92,62.65 35.59,119.46 54.46,182.53 13.56,45.36 40.21,147.16 59.33,182.29 z M 4748.9,8925.51 c -1.2,62.03 53.42,191.87 84.11,237.49 50.22,0.99 152.79,-21.68 195.38,-37.07 52.81,-19.09 35.29,-321.39 34.43,-379.07 -22.43,9.48 -57.1,31.95 -76.72,44.05 l -158.03,89.89 c -18.05,10.58 -60.71,30.08 -79.17,44.71 z M 3246.24,8660.84 c -30.35,-12.41 -20.18,-22.92 -40.27,-33.25 l -16.59,12.36 c 50.11,52.77 50.65,32.66 29.75,107.11 l -35.67,106.01 c -8.78,20.09 -6.91,34.55 -13.94,55.9 -23.39,71.14 -44.21,146.32 -66.19,214.91 32.77,-9.99 119.22,-74.44 205.44,-98.79 42.05,-115.05 82.21,-358.22 64.55,-490.83 -4.59,-34.48 -20.99,-128.36 -43.3,-143.9 z m 374.39,-1352.08 c -3.4,9.82 -21.48,102.28 -22.12,113.05 -1.23,20.68 33.66,68.54 47.08,90.36 125.4,7.57 181.73,39.02 289.72,72.74 45.43,-117.65 22.88,-227.63 -4.75,-354.34 -10.58,1.33 -41.81,23.28 -59.02,30.66 -108.22,46.4 -170.49,29.96 -250.91,47.53 z M 6158.61,5597.95 c 42.78,-12.51 65.55,-41.06 156.48,-64.3 88.41,-22.6 58.58,15.92 88.62,-86.12 27.11,-92.07 47.7,-133.18 88.7,-220.94 -150.25,9.59 -97.6,7.7 -251.65,-1.89 -11.2,17.99 -76.31,81.36 -97.17,101.28 -13.43,12.8 -26.23,15.7 -19.09,38.04 23.68,74.12 35.95,148.75 34.11,233.93 z m -625.48,3181.43 c 97.11,-34.28 130.42,-62.62 207.64,-107.17 18.72,-10.8 44.32,-29.92 69.39,-40.84 -23.33,-48.03 -88.83,-266.48 -107.67,-345.01 l -5.32,-18.77 c -0.42,-1.17 -1.2,-2.85 -1.56,-3.79 -0.36,-0.96 -0.93,-2.6 -1.64,-3.78 -14.01,8.52 -121.03,110.54 -126.29,131.98 -4.72,19.16 -8.62,50.1 -10.64,70.77 -5.24,53.82 -7.6,107.03 -11.74,159.35 -3.23,40.75 -15.13,123.13 -12.17,157.26 z M 5044.32,5880.01 c 71.24,-30.17 103.62,-51.53 189.82,-84.04 60.82,-22.95 205.62,-53.5 206.95,-85.7 3.25,-79.12 -59.61,-198.39 -84.63,-266.26 -10.66,2 -11.37,4.65 -23.54,16.83 -99.19,99.36 -307.1,256.06 -288.6,419.17 z m -724.54,190.72 c 13.86,-21.05 26.82,-48.46 39.79,-71.01 14.84,-25.79 25.7,-42.58 42.9,-70.64 53.83,-87.84 121.53,-178.36 189.03,-265.83 15.27,-19.79 36.25,-42.14 52.23,-61.58 l 52.57,-61.77 c -10.91,-18.66 -59.12,-70.35 -77.57,-84.02 -35.45,15.33 -241.11,293.82 -295.98,353.24 -9.01,9.76 -56.4,59.55 -62.7,70.81 -22.43,40.05 31.62,183.16 59.73,190.8 z m 1720.95,2834.68 361.07,-200.49 c 17.68,-85.83 -55.59,-200.37 -114.54,-265.71 -12.04,-13.33 -17.41,-20.59 -30.51,-29.48 l -115.81,239.06 c -21.54,46.02 -93.88,217.16 -100.21,256.62 z M 4406.13,7579.23 c 100.38,-55.59 123.77,-51.45 178.16,-155.39 20.97,-40.06 8.59,-31.9 -8.71,-73.57 -51.75,-124.59 -36.24,-165.64 -114.66,-333.89 l -49.56,136.51 c -16.13,46.8 -32.43,87.8 -51.86,136.15 -29.9,74.4 -21.19,67.34 2.79,146.23 14.48,47.64 28.02,99.42 43.84,143.96 z M 3245.48,6180.54 c 6.74,36.51 87.26,269.65 99.67,283.33 17.44,-33.58 45.13,-73.37 67.22,-116.14 54.92,-106.38 128.39,-305.13 139.5,-422.63 l -14.45,4.99 c -5.07,1.81 -10.92,3.96 -15.43,5.68 l -79.82,24.72 c -13.85,3.22 -44.68,6.74 -53.37,13.68 l -11.91,20.66 c -42.61,104.83 -71.66,121.71 -131.41,185.71 z m -831.57,668.7 c 0.01,31.03 1.89,61.89 10.74,89.77 5.11,16.14 17.51,43.96 29.8,55.05 7.64,6.9 -0.82,0.55 8.97,6.35 l 252.88,-182.73 c -8.04,-30.19 -31.52,-69.98 -47.31,-101.91 -19.13,-38.69 -37.58,-103.04 -41.65,-109.28 -38.35,7.83 -122.03,52.4 -158.55,70.27 -42.37,20.72 -35.4,17.79 -45,68.23 -6.73,35.25 -9.92,67.62 -9.88,104.25 z m 2231.17,2033.41 c 24.29,-8.57 196.02,-101.64 209.91,-113.84 l 12.74,-58.56 c 4.13,-20.92 8.56,-43.11 13.79,-61.92 21.38,-77 101,-294.56 97.45,-338.48 -48.78,53.56 -121.39,119.25 -184.12,154.55 -35.12,19.77 -30.53,33.05 -44.39,69.21 -25.64,66.87 -96.82,281.23 -105.38,349.04 z m 1401.43,-2165.7 c 5.86,48.14 21.93,107.38 42.55,146.39 15.01,28.4 57.63,89.48 96.74,93.1 15.87,-33.84 33.2,-101.37 44.44,-138.26 15.19,-49.86 29.19,-96.6 43.62,-145.08 l 83.94,-292.74 -49.86,35.69 c -45.44,40.14 -79.07,82.94 -112.9,129.15 -40.51,55.32 -94.5,140.74 -148.53,171.75 z m -1461.54,515.82 c 20.43,-15.53 60,-99.73 69.42,-128.7 36.18,-111.33 27.61,-225.73 -21.14,-329.94 -10.5,-22.44 -22.55,-44.17 -35.44,-63.48 -10.33,-15.45 -31.85,-46.24 -46.58,-57.51 l -72.86,303.65 c 0.64,6.75 44.69,84.6 60.32,128.57 12.12,34.15 34.63,130.96 46.28,147.41 z M 2648.76,6302.12 c 8.29,8.69 112.16,80.29 158.75,124.48 13.92,13.21 38.97,31.18 47.72,47.32 32.58,-4.31 217.61,-84.87 246.94,-111.01 -3.23,-3.55 -145.62,-72.91 -184.76,-98.32 -27.57,-17.89 -57.93,-37.98 -84.34,-58.95 l -66.43,-56.75 c -8.26,-4.49 -0.78,-3.03 -13.02,-4.39 -12.74,33.03 -28.66,57.86 -46.06,85.82 -18.67,29.93 -41.88,47.99 -58.8,71.8 z m 3082.16,-344.47 c -15.76,132.35 -52.41,265.42 -63.25,356.46 36.34,-9.74 85.69,-44.9 117.48,-63.77 60.97,-36.19 59.08,-24.3 85.54,-94.55 34.64,-91.96 62.27,-187.7 59.28,-299.91 -24.91,10.59 -57.04,51.05 -142.77,83.19 -20.44,7.66 -38.66,8.88 -56.28,18.58 z M 4381.95,8862.32 c -0.74,89.65 -4.65,168.19 33.56,250.92 10.27,22.27 24.97,44.51 40.72,68.13 l 42.01,51.36 c 11.86,8.4 -3.57,4.16 5.83,2.01 12.71,-28.98 11.21,-104.76 16.38,-141.78 15.37,-110.21 26.26,-164.14 50.57,-270.05 8.22,-35.91 30.4,-96.69 33.99,-131.71 -103.17,47.74 -185.61,153.48 -223.06,171.12 z M 3708.64,6517.23 c -2.01,51.27 18.16,256.48 28.62,320.38 l 23.21,98.19 c 22.99,-13.56 41.63,-28.34 65.64,-46.28 21.04,-15.73 41.96,-32.63 63.08,-49.62 0.41,-25.44 -25.71,-122.05 -31.43,-160.18 -15.09,-100.54 -13.7,-172.8 -11.63,-269.79 -35.98,23.72 -18.67,45.53 -137.49,107.3 z m -78.78,747.21 c 93.73,-4.66 189.6,-15.63 260.3,-60.31 20.31,-12.84 29.76,-17.72 21.98,-43.9 -6.39,-21.5 -10.85,-42.16 -16.07,-62.9 -7.17,-28.38 -17.4,-115.02 -29.52,-131.93 l -199.8,134.54 c -20.4,12.87 -18.93,13.85 -21.6,43.72 -3.6,40.33 -15.1,81.81 -15.29,120.78 z m 392.69,1286.55 c 22.21,8.78 58.13,31.18 75.43,33.19 17.02,-45.86 52.23,-216.07 76.65,-295.64 20.47,-66.71 11.5,-47.46 -23.92,-138.82 -8.44,-21.83 -47.06,-110.9 -67.19,-119.91 -15.46,29.55 -66.13,469.55 -60.97,521.18 z m 459.65,-2660.98 228.15,-0.99 c 12.65,-19.09 89.97,-230.32 91.84,-255.6 -25.17,-19.18 -29.38,-16.63 -56.48,-43.22 -4.95,-4.85 -0.69,-2.22 -7.78,-7.34 -10.55,-7.62 -1.85,-2.8 -16.49,-8.89 -11.13,20.84 -71.05,82.73 -93.17,110.85 -22.18,28.18 -138.96,176.93 -146.07,205.19 z m 1655.22,1501.14 c 16.29,10.46 100.03,32.48 105.79,32.09 58.77,-4.16 170.37,-146.16 184.4,-218.6 -23.96,-12.5 -188.29,-55.26 -216.4,-50.21 z M 3992.76,9044.72 c 35.07,-39 119.21,-179.74 156.57,-237.95 14.93,-23.27 37.88,-56.04 51.38,-82.34 -4.83,-8.83 0.31,-2.24 -8.42,-11.88 L 4119,8652.61 c -21.2,-14.48 -77,-53.2 -102.43,-53.91 z M 6033.77,7690.06 c 57.68,-0.45 289.17,-104.14 338.66,-148.58 -24.96,-23.86 -74.22,-49.36 -114.3,-65.35 -26.12,-10.43 -112.06,-39.9 -136.39,-39.19 l -64.22,190.55 c -19.63,34.48 -22.83,6.54 -23.75,62.57 z m -2123,-760.27 13.81,101.54 c 23.85,1.67 63.79,-9.04 89.64,-11.87 130.57,-14.25 88.64,47.74 129.01,-154.85 7.04,-35.33 28.27,-124.64 27.42,-156.05 -55.7,44.04 -208,191.25 -259.88,221.23 z m 889.58,1479.12 c 13.03,-5.52 3.46,-0.37 15.53,-7.78 43.4,-26.64 150.64,-140.95 186.39,-179.32 18.19,-19.53 113.12,-105.47 118.39,-119.33 -35.88,-26.6 -97.37,-69.43 -146.14,-86.59 -27.37,75.02 -155.5,321.44 -174.17,393.02 z m -123.56,-240.96 c 17.92,13.38 35.26,21.19 51.29,33.88 22.44,17.77 34.6,32.05 52.34,39.37 10.37,-42.84 126.91,-277.28 155.07,-336.6 16.51,-34.77 39.52,-73.73 53.78,-111.92 -37.41,24.76 -126.39,137.61 -162.77,179.43 -25.97,29.83 -51.61,62.38 -76.56,94 -13.54,17.12 -68.29,85.75 -73.15,101.84 z m -700.53,-562.9 c 32.55,11.06 100.93,47.82 126.54,65 16.97,-14.15 59.32,-133.79 74.36,-164.4 -41.49,-21.43 -88.81,-42.06 -128.89,-75.02 L 4004.1,7398 c 6.41,120.94 -10.91,119.17 -27.84,207.05 z m -484.25,251.45 c 58.6,-26.03 133.25,-104.16 175.57,-148.39 24.69,-25.79 8.07,-42.44 -23.81,-105.2 -17.88,-35.22 -40.79,-72.59 -56.16,-105.87 -10.04,11.39 -11.79,24.92 -14.7,39.69 l -33.17,137.43 c -14.31,55.27 -38.56,127.17 -47.73,182.34 z" />
        </g>
      </g>
      <path
         class="fil4 str0"
         d="m 2580.46,7256.47 c 0,643.18 349.54,1207.05 874.41,1523.02 C 3193.69,7866 2903.31,7212.8 2584.51,7139.05 v 0 c -2.61,38.84 -4.05,77.95 -4.05,117.42 z m 64.68,-471.17 c 548.53,-198.18 1028.73,22.35 1411.46,1875 v 0 C 5097.41,7464.61 5692.49,6394.22 5114.84,5593.33 v 0 c -212.45,-82.64 -444.39,-128.22 -687.32,-128.22 -851.96,0 -1569.1,559.43 -1782.38,1320.19 z m 2144.3,2228.04 c 846.81,-163.19 1485.15,-887.67 1485.15,-1756.87 0,-357.13 -107.8,-689.79 -293.49,-969.21 56.78,873.67 -575.56,2028.51 -1191.66,2726.08 z"
         id="path858" />
      <path
         class="fil5 str0"
         d="m 7045.31,7876.43 c 9.57,72.63 31.75,139.44 66.49,201.02 34.75,61.6 79.07,114.46 132.4,159.78 53.31,44.74 113.81,80.18 182.12,106.32 68.29,25.58 140.77,38.35 217.46,38.35 87.46,0 170.73,-16.28 249.81,-48.8 79.08,-32.54 143.78,-78.44 194.09,-137.7 41.94,-29.04 80.89,-37.19 116.83,-24.4 21.57,6.97 39.54,22.08 53.92,45.32 16.77,20.91 25.15,45.89 24.55,74.95 -0.58,29.04 -15.56,55.2 -44.32,78.44 -63.5,67.39 -144.38,123.74 -243.23,169.64 -98.85,45.91 -216.26,69.15 -351.65,69.15 -118.63,0 -229.45,-22.09 -333.1,-65.66 -103.62,-43.57 -194.69,-102.84 -272.57,-178.36 -77.87,-76.11 -138.98,-164.44 -183.9,-265.52 -44.95,-101.1 -67.71,-209.17 -67.71,-324.78 0,-115.05 22.76,-222.53 67.71,-323.64 44.92,-100.5 106.03,-188.24 183.9,-264.34 77.88,-75.53 168.95,-134.8 272.57,-178.36 103.65,-43.59 214.47,-65.67 333.1,-65.67 117.42,0 228.25,21.49 332.48,64.5 104.24,42.98 195.29,101.67 272.59,176.63 77.27,74.36 138.38,162.1 183.9,262.6 45.53,100.52 68.89,207.41 70.1,320.71 0,31.38 -10.19,57.54 -31.15,78.45 -20.98,20.9 -49.13,31.37 -83.87,31.37 z m 1216.71,-191.74 c -8.38,-74.36 -29.96,-142.34 -65.3,-205.09 -35.33,-62.16 -80.28,-116.78 -134.79,-163.26 -54.51,-46.49 -117.42,-82.51 -188.12,-108.65 -70.67,-26.14 -146.16,-38.92 -226.44,-38.92 -80.28,0 -155.75,13.36 -226.44,40.08 -70.7,26.73 -133.01,62.75 -186.92,108.65 -53.91,45.32 -97.65,99.94 -131.8,163.27 -34.13,62.75 -55.71,130.73 -64.1,203.92 z m 2282.47,786.1 c 0,33.71 -6.6,61.02 -19.77,81.93 -13.18,20.91 -37.75,31.37 -72.5,31.37 -29.95,0 -51.51,-8.13 -64.1,-24.97 -12.58,-16.87 -20.96,-30.81 -24.55,-40.67 l -28.76,-228.93 c -79.68,97.62 -177.33,174.89 -293.55,232.41 -116.22,57.51 -243.23,86.57 -379.8,86.57 -118.63,0 -230.66,-22.09 -334.88,-66.25 -104.25,-44.15 -195.3,-104 -272.6,-179.52 -77.27,-76.11 -138.38,-164.42 -182.72,-265.52 -44.32,-101.1 -66.48,-209.17 -66.48,-324.78 0,-115.05 22.16,-222.53 66.48,-323.62 44.34,-100.52 105.45,-188.26 183.33,-263.2 77.27,-74.94 168.34,-134.21 272.57,-177.77 104.85,-43.59 216.27,-65.67 334.88,-65.67 130,0 250.43,26.14 362.44,77.86 111.42,51.7 207.29,122.01 286.37,210.32 v -776.23 c 0,-32.52 10.79,-60.41 32.35,-83.65 21.55,-23.25 49.11,-34.86 82.66,-34.86 34.76,0 63.5,11.61 85.68,34.86 22.16,23.24 32.95,51.13 32.95,83.65 z m -258.81,-698.95 c 0,-83.65 -16.17,-162.09 -48.52,-235.31 -32.35,-73.19 -76.69,-137.1 -133,-191.72 -56.32,-54.61 -122.2,-97.62 -198.29,-128.99 -76.09,-31.38 -157.55,-47.05 -243.83,-47.05 -87.46,0 -168.93,15.67 -244.41,47.05 -75.49,31.37 -140.79,74.38 -196.5,128.99 -55.72,54.62 -99.44,118.53 -131.21,191.72 -31.74,73.22 -47.91,151.66 -47.91,235.31 0,82.51 16.17,160.37 47.91,233.56 31.77,73.22 75.49,137.13 131.21,192.33 55.71,55.18 121.01,99.35 196.5,131.87 75.48,32.54 156.95,48.82 244.41,48.82 86.28,0 167.74,-16.28 243.83,-48.82 76.09,-32.52 141.97,-76.69 198.29,-131.87 56.31,-55.2 100.65,-119.11 133,-192.33 32.35,-73.19 48.52,-151.05 48.52,-233.56 z m 688.33,4.07 c 0,-115.03 22.77,-223.1 67.71,-325.37 44.92,-101.66 106.03,-189.99 183.91,-264.93 77.87,-74.94 168.94,-134.21 273.17,-177.77 104.25,-43.59 215.07,-65.67 332.49,-65.67 129.4,0 249.81,25.56 361.24,76.69 111.43,51.14 206.69,120.27 285.77,207.42 l 13.17,-154.55 c 13.18,-32.52 27.56,-59.27 43.14,-80.76 15.56,-20.91 38.93,-31.37 68.89,-31.37 34.74,0 59.3,10.46 72.48,31.37 13.18,20.93 19.77,48.24 19.77,81.93 v 1392.66 c 0,33.71 -10.79,61.6 -32.95,84.26 -22.16,22.66 -50.92,34.27 -85.67,34.27 -33.53,0 -61.09,-11.05 -82.67,-33.71 -21.56,-22.66 -32.35,-50.53 -32.35,-84.24 l -1.78,-141.75 c -79.08,84.82 -172.54,153.38 -280.98,205.67 -108.44,52.28 -224.66,78.44 -348.06,78.44 -117.42,0 -228.24,-22.09 -332.49,-65.66 -104.23,-43.57 -195.3,-102.84 -273.17,-178.36 -77.88,-76.11 -138.99,-164.44 -183.91,-265.52 -44.94,-101.1 -67.71,-208.59 -67.71,-323.05 z m 233.65,-0.58 c 0,82.5 16.16,159.78 48.53,232.41 32.35,72.63 76.67,136.54 132.99,191.72 56.31,55.2 122.81,98.77 198.88,130.73 76.09,31.95 156.96,48.23 243.23,48.23 87.46,0 168.95,-16.28 244.42,-48.23 75.48,-31.96 141.39,-75.53 197.1,-130.73 55.71,-55.18 99.45,-119.09 131.2,-191.72 31.75,-72.63 47.33,-149.91 47.33,-232.41 0,-83.66 -15.58,-162.69 -47.33,-236.46 -31.75,-73.8 -75.49,-138.29 -131.2,-193.47 -55.71,-55.2 -121.62,-98.21 -197.1,-129.58 -75.47,-31.38 -156.96,-47.05 -244.42,-47.05 -86.27,0 -167.14,15.67 -243.23,47.05 -76.07,31.37 -142.57,74.38 -198.88,129.58 -56.32,55.18 -100.64,119.67 -132.99,193.47 -32.37,73.77 -48.53,152.8 -48.53,236.46 z m 2014.66,-702.43 c 0,-33.69 7.2,-61 20.98,-81.93 13.78,-20.91 37.14,-31.37 70.7,-31.37 31.14,0 55.71,11.05 73.08,32.54 17.37,21.49 31.75,49.38 43.72,83.09 l 14.38,214.38 c 32.35,-51.13 70.09,-98.18 113.23,-140.6 43.14,-42.41 91.05,-79.01 143.17,-109.8 52.13,-30.81 108.44,-54.62 168.95,-71.48 60.51,-16.84 124,-25.56 191.11,-25.56 112.63,0 212.66,20.91 300.12,62.16 87.46,41.26 161.17,97.63 220.47,169.67 59.3,72.63 104.23,156.87 135.39,253.32 31.15,96.44 46.73,199.85 46.73,310.25 v 736.7 c 0,32.54 -10.79,59.27 -32.35,80.76 -21.58,21.51 -49.13,32.54 -82.69,32.54 -32.34,0 -59.9,-11.03 -83.26,-32.54 -23.37,-21.49 -35.34,-48.22 -35.34,-80.76 v -729.73 c 0,-79.01 -10.79,-153.39 -32.95,-223.1 -22.16,-69.73 -54.51,-131.31 -96.45,-183.61 -41.93,-52.28 -94.06,-93.54 -156.97,-123.74 -62.89,-30.23 -134.79,-45.32 -215.05,-45.32 -81.49,0 -156.98,16.26 -227.05,49.38 -70.09,33.13 -130.6,77.28 -181.52,132.48 -50.92,55.18 -91.07,119.68 -120.43,192.89 -29.34,73.21 -44.32,149.88 -44.32,230.08 v 691.96 c 0,33.71 -10.19,61.6 -31.15,84.26 -20.98,22.66 -49.13,34.27 -83.87,34.27 -33.55,0 -61.71,-11.61 -84.47,-34.27 -22.76,-22.66 -34.16,-50.55 -34.16,-84.26 z m 2623.95,1146.91 558.94,-1185.25 c 13.18,-30.23 34.74,-51.13 64.1,-62.75 29.36,-11.63 59.3,-11.04 90.47,1.73 29.94,12.78 50.92,33.71 62.29,62.75 11.39,29.06 10.19,58.68 -2.99,88.89 l -661.38,1383.97 -30.55,71.46 c -49.13,104.58 -97.06,195.2 -143.79,271.33 -46.71,76.11 -97.65,138.27 -152.76,187.66 -55.12,49.38 -117.41,85.4 -186.9,108.06 -69.51,22.66 -150.97,33.71 -244.43,32.54 h -8.99 c -32.34,0 -59.9,-10.46 -82.66,-30.79 -22.77,-20.34 -34.16,-47.07 -34.16,-79.61 0,-33.1 12,-59.83 35.36,-81.34 23.36,-20.91 50.92,-31.37 83.27,-31.37 h 14.38 c 69.49,2.33 128.79,-4.07 177.31,-19.74 48.53,-15.7 91.07,-41.26 127.61,-75.55 36.54,-34.27 69.49,-76.69 98.85,-127.81 29.34,-51.13 59.3,-110.98 90.45,-179.52 l 26.95,-64.5 -652.37,-1364.79 c -14.38,-30.21 -15.59,-59.83 -3.59,-88.89 11.97,-29.04 32.93,-49.97 62.89,-62.75 29.96,-12.77 59.91,-13.94 89.87,-2.89 29.94,11.02 51.52,31.95 64.7,62.16 z m 1010.04,-443.9 c 0,-115.03 22.77,-223.1 67.71,-325.37 44.92,-101.66 106.03,-189.99 183.91,-264.93 77.87,-74.94 168.94,-134.21 273.17,-177.77 104.24,-43.59 215.07,-65.67 332.49,-65.67 129.4,0 249.81,25.56 361.24,76.69 111.42,51.14 206.69,120.27 285.77,207.42 l 13.17,-154.55 c 13.18,-32.52 27.56,-59.27 43.14,-80.76 15.56,-20.91 38.93,-31.37 68.89,-31.37 34.74,0 59.3,10.46 72.48,31.37 13.18,20.93 19.77,48.24 19.77,81.93 v 1392.66 c 0,33.71 -10.79,61.6 -32.95,84.26 -22.16,22.66 -50.92,34.27 -85.67,34.27 -33.54,0 -61.09,-11.05 -82.67,-33.71 -21.56,-22.66 -32.35,-50.53 -32.35,-84.24 l -1.78,-141.75 c -79.08,84.82 -172.54,153.38 -280.98,205.67 -108.44,52.28 -224.66,78.44 -348.06,78.44 -117.42,0 -228.25,-22.09 -332.49,-65.66 -104.23,-43.57 -195.3,-102.84 -273.17,-178.36 -77.88,-76.11 -138.99,-164.44 -183.91,-265.52 -44.94,-101.1 -67.71,-208.59 -67.71,-323.05 z m 233.65,-0.58 c 0,82.5 16.16,159.78 48.53,232.41 32.35,72.63 76.67,136.54 132.99,191.72 56.31,55.2 122.81,98.77 198.88,130.73 76.09,31.95 156.96,48.23 243.23,48.23 87.46,0 168.95,-16.28 244.42,-48.23 75.48,-31.96 141.39,-75.53 197.1,-130.73 55.71,-55.18 99.45,-119.09 131.2,-191.72 31.75,-72.63 47.33,-149.91 47.33,-232.41 0,-83.66 -15.58,-162.69 -47.33,-236.46 -31.75,-73.8 -75.49,-138.29 -131.2,-193.47 -55.71,-55.2 -121.62,-98.21 -197.1,-129.58 -75.47,-31.38 -156.96,-47.05 -244.42,-47.05 -86.27,0 -167.14,15.67 -243.23,47.05 -76.07,31.37 -142.57,74.38 -198.88,129.58 -56.32,55.18 -100.64,119.67 -132.99,193.47 -32.37,73.77 -48.53,152.8 -48.53,236.46 z"
         id="path860" />
      <path
         class="fil0"
         d="m 17577.24,6447.64 v -552.72 h -212.82 v -73.46 h 511.29 v 73.46 h -212.81 v 552.72 z m 384.89,0 v -626.18 h 128.05 l 152.7,443.25 c 14.13,41.25 24.34,72.15 30.81,92.71 7.36,-22.74 18.93,-56.27 34.56,-100.43 l 155.41,-435.53 h 114.37 v 626.18 h -82.06 v -523.86 l -188.47,523.86 h -76.94 l -186.36,-533.48 v 533.48 z"
         id="path862" />
    </g>
    <g
       id="g1225"
       transform="translate(-15.475534,-4.2194358)">
      <path
         class="fil0"
         d="m 23.106938,10.93706 v 0.444437 H 22.60533 V 10.93706 h -0.04539 v 0.940333 h 0.04539 v -0.444419 h 0.501608 v 0.444419 h 0.04539 V 10.93706 Z m 1.316613,0.0014 h -0.531063 v 0.937623 h 0.531063 v -0.04742 h -0.488135 v -0.396996 h 0.425582 v -0.04879 H 23.935416 V 10.98588 h 0.488135 z m 1.052895,0.0013 h -0.05028 l -0.321332,0.934914 h 0.04662 l 0.09076,-0.266912 h 0.418215 l 0.09076,0.266912 h 0.0466 z m 0.16682,0.623289 h -0.383885 l 0.191335,-0.566375 z m 0.892246,0.264203 v -0.890201 h -0.04537 v 0.940333 h 0.533491 v -0.05013 z m 1.652632,-0.890201 h -0.658598 v 0.05013 h 0.306613 v 0.890202 h 0.04537 v -0.890202 h 0.306613 z m 1.249137,0 v 0.444437 h -0.501607 v -0.444437 h -0.04539 v 0.940333 h 0.04539 v -0.44441 h 0.501607 v 0.444419 h 0.04539 V 10.93706 Z m 2.12668,0.02304 c 0.136134,0 0.259993,0.07453 0.336035,0.199181 h 0.0049 l 0.03435,-0.02846 c -0.08218,-0.136847 -0.223203,-0.222199 -0.375287,-0.222199 -0.247752,0 -0.452576,0.226273 -0.452576,0.499968 0,0.273696 0.204824,0.499969 0.452576,0.499969 0.152084,0 0.293108,-0.08535 0.375287,-0.2222 l -0.03435,-0.02846 h -0.0049 c -0.07604,0.124646 -0.199901,0.19918 -0.336035,0.19918 -0.225664,0 -0.407203,-0.19918 -0.407203,-0.448492 0,-0.249311 0.181539,-0.448492 0.407203,-0.448492 z m 1.399991,-0.02033 h -0.05028 l -0.321332,0.934914 h 0.0466 l 0.09076,-0.266912 h 0.418214 l 0.09076,0.266912 h 0.0466 z m 0.166803,0.623289 h -0.383886 l 0.191336,-0.566375 z m 1.411034,-0.342811 c 0,-0.155813 -0.114063,-0.281823 -0.255103,-0.281823 h -0.309058 v 0.938969 h 0.04047 v -0.373951 h 0.257548 l 0.207269,0.373959 h 0.05397 l -0.2085,-0.378013 c 0.121414,-0.02169 0.213406,-0.138212 0.213406,-0.279133 z m -0.255103,0.237129 h -0.268592 v -0.474239 h 0.268592 c 0.117739,0 0.214637,0.107045 0.214637,0.23711 0,0.131429 -0.0969,0.237129 -0.214637,0.237129 z m 1.501795,-0.518952 h -0.531063 v 0.937623 h 0.531063 v -0.04742 h -0.488135 v -0.396996 h 0.425565 v -0.04879 h -0.425565 v -0.396997 h 0.488135 z"
         id="path1157"
         style="clip-rule:evenodd;fill:#ffffff;stroke-width:0.00177514;image-rendering:optimizeQuality;shape-rendering:geometricPrecision;text-rendering:geometricPrecision" />
      <path
         class="fil0"
         d="M 40.507224,6.238635 V 5.1914462 H 40.15326 V 5.0522681 h 0.850383 V 5.1914462 H 40.649695 V 6.238635 Z m 0.640153,0 V 5.0522681 h 0.212974 l 0.253972,0.8397859 c 0.0235,0.078153 0.04048,0.1366961 0.05124,0.1756493 0.01224,-0.043083 0.03149,-0.1066097 0.05748,-0.1902757 l 0.25848,-0.8251595 h 0.190221 V 6.238635 H 42.035265 V 5.2461246 L 41.7218,6.238635 H 41.593833 L 41.283877,5.2278985 V 6.238635 Z"
         id="path1179"
         style="clip-rule:evenodd;fill:#ffffff;stroke-width:0.00177514;image-rendering:optimizeQuality;shape-rendering:geometricPrecision;text-rendering:geometricPrecision" />
    </g>
  </g>
</svg>
